<svg width="48" height="48" viewBox="0 0 48 48" fill="none" xmlns="http://www.w3.org/2000/svg">
<path d="M25.9328 34.6841L15.2733 24.6031C15.1721 24.5074 15.1012 24.4117 15.0607 24.3159C15.0202 24.2202 15 24.1149 15 24C15 23.8851 15.0202 23.7798 15.0607 23.6841C15.1012 23.5883 15.1721 23.4926 15.2733 23.3969L25.9328 13.3159C26.1555 13.1053 26.4389 13 26.7831 13C27.1273 13 27.4107 13.1053 27.6334 13.3159C27.8764 13.5457 27.9978 13.8185 27.9978 14.1345C27.9978 14.4504 27.8764 14.7232 27.6334 14.953L18.0672 24L27.6334 33.047C27.8966 33.2959 28.0181 33.5735 27.9978 33.8799C27.9776 34.1862 27.8561 34.4447 27.6334 34.6554C27.3905 34.8851 27.102 35 26.7679 35C26.4338 35 26.1555 34.8947 25.9328 34.6841Z" fill="black" fill-opacity="0.55"/>
</svg>
