<svg width="48" height="48" viewBox="0 0 48 48" fill="none" xmlns="http://www.w3.org/2000/svg">
<g clip-path="url(#clip0_144_35)">
<path d="M7.75 45C6.75 45 5.875 44.6625 5.125 43.9875C4.375 43.3125 4 42.525 4 41.625V12.375C4 11.475 4.375 10.6875 5.125 10.0125C5.875 9.3375 6.75 9 7.75 9H14.625V8.4375C14.625 6.075 15.5312 4.07812 17.3438 2.44687C19.1562 0.815625 21.375 0 24 0C26.625 0 28.8438 0.815625 30.6562 2.44687C32.4688 4.07812 33.375 6.075 33.375 8.4375V9H40.25C41.25 9 42.125 9.3375 42.875 10.0125C43.625 10.6875 44 11.475 44 12.375V41.625C44 42.525 43.625 43.3125 42.875 43.9875C42.125 44.6625 41.25 45 40.25 45H7.75ZM7.75 41.625H40.25V12.375H33.375V17.4375C33.375 17.9156 33.1943 18.3164 32.8328 18.6398C32.4713 18.9633 32.0234 19.125 31.4891 19.125C30.9547 19.125 30.5104 18.9633 30.1562 18.6398C29.8021 18.3164 29.625 17.9156 29.625 17.4375V12.375H18.375V17.4375C18.375 17.9156 18.1943 18.3164 17.8328 18.6398C17.4713 18.9633 17.0234 19.125 16.4891 19.125C15.9547 19.125 15.5104 18.9633 15.1562 18.6398C14.8021 18.3164 14.625 17.9156 14.625 17.4375V12.375H7.75V41.625ZM18.375 9H29.625V8.4375C29.625 7.0125 29.0833 5.8125 28 4.8375C26.9167 3.8625 25.5833 3.375 24 3.375C22.4167 3.375 21.0833 3.8625 20 4.8375C18.9167 5.8125 18.375 7.0125 18.375 8.4375V9Z" fill="black"/>
</g>
<defs>
<clipPath id="clip0_144_35">
<rect width="48" height="48" fill="white"/>
</clipPath>
</defs>
</svg>
