<svg width="80" height="80" viewBox="0 0 80 80" fill="none" xmlns="http://www.w3.org/2000/svg">
<path d="M14.9113 65.0854H18.513L54.7749 28.7994L51.1733 25.1954L14.9113 61.4814V65.0854ZM65.1705 25.2773L54.693 14.7929L58.1165 11.3672C59.0538 10.4292 60.2183 9.97386 61.6098 10.0012C63.0014 10.0285 64.161 10.5063 65.0887 11.4346L68.6085 14.9567C69.5362 15.885 70 17.0317 70 18.3969C70 19.7621 69.5372 20.9078 68.6115 21.8341L65.1705 25.2773ZM12.4824 70C11.7791 70 11.1895 69.7621 10.7137 69.2862C10.2379 68.8103 10 68.2207 10 67.5172V60.5036C10 60.1725 10.0546 59.8705 10.1637 59.5975C10.2729 59.3244 10.4638 59.0514 10.7367 58.7784L51.2551 18.2331L61.7326 28.7175L21.2142 69.2628C20.9413 69.5358 20.6626 69.727 20.3779 69.8362C20.0931 69.9454 19.7989 70 19.4952 70H12.4824ZM52.9741 26.9974L51.1733 25.1954L54.7749 28.7994L52.9741 26.9974Z" fill="black"/>
</svg>
