<svg width="37" height="21" viewBox="0 0 37 21" fill="none" xmlns="http://www.w3.org/2000/svg">
<path d="M0.531333 17.6606L17.4856 0.441515C17.6466 0.277991 17.8077 0.163524 17.9687 0.0981145C18.1297 0.0327048 18.3068 0 18.5 0C18.6932 0 18.8703 0.0327048 19.0313 0.0981145C19.1923 0.163524 19.3534 0.277991 19.5144 0.441515L36.4687 17.6606C36.8229 18.0204 37 18.4782 37 19.0342C37 19.5902 36.8229 20.0481 36.4687 20.4078C36.0822 20.8003 35.6234 20.9965 35.092 20.9965C34.5607 20.9965 34.1018 20.8003 33.7154 20.4078L18.5 4.95478L3.2846 20.4078C2.86597 20.833 2.39904 21.0292 1.88381 20.9965C1.36858 20.9638 0.933857 20.7676 0.579636 20.4078C0.193213 20.0153 1.39326e-06 19.5493 1.39326e-06 19.0097C1.39326e-06 18.47 0.177112 18.0204 0.531333 17.6606Z" fill="black"/>
</svg>
