<svg width="48" height="48" viewBox="0 0 48 48" fill="none" xmlns="http://www.w3.org/2000/svg">
<g clip-path="url(#clip0_169_2)">
<path d="M7.5 37.9C7.075 37.9 6.71875 37.7554 6.43125 37.4663C6.14375 37.1771 6 36.8187 6 36.3913C6 35.9638 6.14375 35.6083 6.43125 35.325C6.71875 35.0417 7.075 34.9 7.5 34.9H16.85C17.275 34.9 17.6313 35.0446 17.9188 35.3337C18.2063 35.6229 18.35 35.9813 18.35 36.4087C18.35 36.8362 18.2063 37.1917 17.9188 37.475C17.6313 37.7583 17.275 37.9 16.85 37.9H7.5ZM7.5 13.1C7.075 13.1 6.71875 12.9554 6.43125 12.6663C6.14375 12.3771 6 12.0187 6 11.5913C6 11.1638 6.14375 10.8083 6.43125 10.525C6.71875 10.2417 7.075 10.1 7.5 10.1H25.15C25.575 10.1 25.9313 10.2446 26.2188 10.5337C26.5063 10.8229 26.65 11.1813 26.65 11.6087C26.65 12.0362 26.5063 12.3917 26.2188 12.675C25.9313 12.9583 25.575 13.1 25.15 13.1H7.5ZM22.8413 42C22.4138 42 22.0583 41.8563 21.775 41.5688C21.4917 41.2813 21.35 40.925 21.35 40.5V32.25C21.35 31.825 21.4946 31.4688 21.7837 31.1813C22.0729 30.8938 22.4313 30.75 22.8587 30.75C23.2862 30.75 23.6417 30.8938 23.925 31.1813C24.2083 31.4688 24.35 31.825 24.35 32.25V34.9H40.5C40.925 34.9 41.2813 35.0446 41.5688 35.3337C41.8563 35.6229 42 35.9813 42 36.4087C42 36.8362 41.8563 37.1917 41.5688 37.475C41.2813 37.7583 40.925 37.9 40.5 37.9H24.35V40.5C24.35 40.925 24.2054 41.2813 23.9163 41.5688C23.6271 41.8563 23.2687 42 22.8413 42ZM16.8413 29.6C16.4138 29.6 16.0583 29.4563 15.775 29.1688C15.4917 28.8813 15.35 28.525 15.35 28.1V25.5H7.5C7.075 25.5 6.71875 25.3554 6.43125 25.0663C6.14375 24.7771 6 24.4187 6 23.9913C6 23.5638 6.14375 23.2083 6.43125 22.925C6.71875 22.6417 7.075 22.5 7.5 22.5H15.35V19.8C15.35 19.375 15.4946 19.0188 15.7837 18.7313C16.0729 18.4438 16.4313 18.3 16.8587 18.3C17.2862 18.3 17.6417 18.4438 17.925 18.7313C18.2083 19.0188 18.35 19.375 18.35 19.8V28.1C18.35 28.525 18.2054 28.8813 17.9163 29.1688C17.6271 29.4563 17.2687 29.6 16.8413 29.6ZM22.85 25.5C22.425 25.5 22.0688 25.3554 21.7813 25.0663C21.4938 24.7771 21.35 24.4187 21.35 23.9913C21.35 23.5638 21.4938 23.2083 21.7813 22.925C22.0688 22.6417 22.425 22.5 22.85 22.5H40.5C40.925 22.5 41.2813 22.6446 41.5688 22.9337C41.8563 23.2229 42 23.5813 42 24.0087C42 24.4362 41.8563 24.7917 41.5688 25.075C41.2813 25.3583 40.925 25.5 40.5 25.5H22.85ZM31.1413 17.25C30.7138 17.25 30.3583 17.1063 30.075 16.8188C29.7917 16.5313 29.65 16.175 29.65 15.75V7.5C29.65 7.075 29.7946 6.71875 30.0837 6.43125C30.3729 6.14375 30.7313 6 31.1587 6C31.5862 6 31.9417 6.14375 32.225 6.43125C32.5083 6.71875 32.65 7.075 32.65 7.5V10.1H40.5C40.925 10.1 41.2813 10.2446 41.5688 10.5337C41.8563 10.8229 42 11.1813 42 11.6087C42 12.0362 41.8563 12.3917 41.5688 12.675C41.2813 12.9583 40.925 13.1 40.5 13.1H32.65V15.75C32.65 16.175 32.5054 16.5313 32.2163 16.8188C31.9271 17.1063 31.5687 17.25 31.1413 17.25Z" fill="black" fill-opacity="0.55"/>
</g>
<defs>
<clipPath id="clip0_169_2">
<rect width="48" height="48" fill="white"/>
</clipPath>
</defs>
</svg>
