<svg width="480" height="220" viewBox="0 0 480 220" fill="none" xmlns="http://www.w3.org/2000/svg">
<g clip-path="url(#clip0_210_69)">
<g clip-path="url(#clip1_210_69)">
<path d="M162.029 166.115C160.835 166.115 159.797 165.841 158.915 165.294C158.032 164.747 157.346 164.026 156.856 163.13C156.303 162.255 155.999 161.306 155.944 160.285C155.889 159.264 156.193 158.223 156.856 157.161L234.052 23.8594C234.715 22.7983 235.477 22.0356 236.34 21.5714C237.202 21.1071 238.163 20.875 239.224 20.875C240.286 20.875 241.247 21.1071 242.109 21.5714C242.972 22.0356 243.734 22.7983 244.397 23.8594L321.593 157.161C322.256 158.223 322.56 159.264 322.505 160.285C322.45 161.306 322.146 162.255 321.593 163.13C321.103 164.026 320.417 164.747 319.534 165.294C318.652 165.841 317.614 166.115 316.42 166.115H162.029ZM172.374 154.177H306.074L239.224 38.7812L172.374 154.177ZM240.055 142.836C241.756 142.836 243.17 142.261 244.298 141.11C245.425 139.96 245.989 138.534 245.989 136.833C245.989 135.132 245.414 133.718 244.263 132.59C243.112 131.463 241.686 130.899 239.985 130.899C238.284 130.899 236.87 131.474 235.743 132.625C234.615 133.776 234.052 135.202 234.052 136.903C234.052 138.604 234.627 140.018 235.777 141.145C236.928 142.273 238.354 142.836 240.055 142.836ZM240.055 120.752C241.756 120.752 243.17 120.18 244.298 119.036C245.425 117.892 245.989 116.474 245.989 114.783V82.1542C245.989 80.463 245.414 79.0454 244.263 77.9014C243.112 76.7574 241.686 76.1854 239.985 76.1854C238.284 76.1854 236.87 76.7574 235.743 77.9014C234.615 79.0454 234.052 80.463 234.052 82.1542V114.783C234.052 116.474 234.627 117.892 235.777 119.036C236.928 120.18 238.354 120.752 240.055 120.752Z" fill="black"/>
</g>
<path d="M182.963 195H181.143L173.823 183.9V195H172.003V181.04H173.823L181.143 192.12V181.04H182.963V195ZM190.845 195.18C189.819 195.18 188.885 194.947 188.045 194.48C187.219 194.013 186.565 193.353 186.085 192.5C185.619 191.633 185.385 190.633 185.385 189.5C185.385 188.38 185.625 187.393 186.105 186.54C186.599 185.673 187.265 185.013 188.105 184.56C188.945 184.093 189.885 183.86 190.925 183.86C191.965 183.86 192.905 184.093 193.745 184.56C194.585 185.013 195.245 185.667 195.725 186.52C196.219 187.373 196.465 188.367 196.465 189.5C196.465 190.633 196.212 191.633 195.705 192.5C195.212 193.353 194.539 194.013 193.685 194.48C192.832 194.947 191.885 195.18 190.845 195.18ZM190.845 193.58C191.499 193.58 192.112 193.427 192.685 193.12C193.259 192.813 193.719 192.353 194.065 191.74C194.425 191.127 194.605 190.38 194.605 189.5C194.605 188.62 194.432 187.873 194.085 187.26C193.739 186.647 193.285 186.193 192.725 185.9C192.165 185.593 191.559 185.44 190.905 185.44C190.239 185.44 189.625 185.593 189.065 185.9C188.519 186.193 188.079 186.647 187.745 187.26C187.412 187.873 187.245 188.62 187.245 189.5C187.245 190.393 187.405 191.147 187.725 191.76C188.059 192.373 188.499 192.833 189.045 193.14C189.592 193.433 190.192 193.58 190.845 193.58ZM201.078 185.54V192C201.078 192.533 201.192 192.913 201.418 193.14C201.645 193.353 202.038 193.46 202.598 193.46H203.938V195H202.298C201.285 195 200.525 194.767 200.018 194.3C199.512 193.833 199.258 193.067 199.258 192V185.54H197.838V184.04H199.258V181.28H201.078V184.04H203.938V185.54H201.078ZM210.796 189.48C210.796 188.36 211.022 187.38 211.476 186.54C211.929 185.687 212.549 185.027 213.336 184.56C214.136 184.093 215.022 183.86 215.996 183.86C216.956 183.86 217.789 184.067 218.496 184.48C219.202 184.893 219.729 185.413 220.076 186.04V184.04H221.916V195H220.076V192.96C219.716 193.6 219.176 194.133 218.456 194.56C217.749 194.973 216.922 195.18 215.976 195.18C215.002 195.18 214.122 194.94 213.336 194.46C212.549 193.98 211.929 193.307 211.476 192.44C211.022 191.573 210.796 190.587 210.796 189.48ZM220.076 189.5C220.076 188.673 219.909 187.953 219.576 187.34C219.242 186.727 218.789 186.26 218.216 185.94C217.656 185.607 217.036 185.44 216.356 185.44C215.676 185.44 215.056 185.6 214.496 185.92C213.936 186.24 213.489 186.707 213.156 187.32C212.822 187.933 212.656 188.653 212.656 189.48C212.656 190.32 212.822 191.053 213.156 191.68C213.489 192.293 213.936 192.767 214.496 193.1C215.056 193.42 215.676 193.58 216.356 193.58C217.036 193.58 217.656 193.42 218.216 193.1C218.789 192.767 219.242 192.293 219.576 191.68C219.909 191.053 220.076 190.327 220.076 189.5ZM230.331 183.84C231.665 183.84 232.745 184.247 233.571 185.06C234.398 185.86 234.811 187.02 234.811 188.54V195H233.011V188.8C233.011 187.707 232.738 186.873 232.191 186.3C231.645 185.713 230.898 185.42 229.951 185.42C228.991 185.42 228.225 185.72 227.651 186.32C227.091 186.92 226.811 187.793 226.811 188.94V195H224.991V184.04H226.811V185.6C227.171 185.04 227.658 184.607 228.271 184.3C228.898 183.993 229.585 183.84 230.331 183.84ZM244.056 182.26C243.71 182.26 243.416 182.14 243.176 181.9C242.936 181.66 242.816 181.367 242.816 181.02C242.816 180.673 242.936 180.38 243.176 180.14C243.416 179.9 243.71 179.78 244.056 179.78C244.39 179.78 244.67 179.9 244.896 180.14C245.136 180.38 245.256 180.673 245.256 181.02C245.256 181.367 245.136 181.66 244.896 181.9C244.67 182.14 244.39 182.26 244.056 182.26ZM244.936 184.04V195H243.116V184.04H244.936ZM261.218 183.84C262.071 183.84 262.831 184.02 263.498 184.38C264.165 184.727 264.691 185.253 265.078 185.96C265.465 186.667 265.658 187.527 265.658 188.54V195H263.858V188.8C263.858 187.707 263.585 186.873 263.038 186.3C262.505 185.713 261.778 185.42 260.858 185.42C259.911 185.42 259.158 185.727 258.598 186.34C258.038 186.94 257.758 187.813 257.758 188.96V195H255.958V188.8C255.958 187.707 255.685 186.873 255.138 186.3C254.605 185.713 253.878 185.42 252.958 185.42C252.011 185.42 251.258 185.727 250.698 186.34C250.138 186.94 249.858 187.813 249.858 188.96V195H248.038V184.04H249.858V185.62C250.218 185.047 250.698 184.607 251.298 184.3C251.911 183.993 252.585 183.84 253.318 183.84C254.238 183.84 255.051 184.047 255.758 184.46C256.465 184.873 256.991 185.48 257.338 186.28C257.645 185.507 258.151 184.907 258.858 184.48C259.565 184.053 260.351 183.84 261.218 183.84ZM267.964 189.48C267.964 188.36 268.19 187.38 268.644 186.54C269.097 185.687 269.717 185.027 270.504 184.56C271.304 184.093 272.19 183.86 273.164 183.86C274.124 183.86 274.957 184.067 275.664 184.48C276.37 184.893 276.897 185.413 277.244 186.04V184.04H279.084V195H277.244V192.96C276.884 193.6 276.344 194.133 275.624 194.56C274.917 194.973 274.09 195.18 273.144 195.18C272.17 195.18 271.29 194.94 270.504 194.46C269.717 193.98 269.097 193.307 268.644 192.44C268.19 191.573 267.964 190.587 267.964 189.48ZM277.244 189.5C277.244 188.673 277.077 187.953 276.744 187.34C276.41 186.727 275.957 186.26 275.384 185.94C274.824 185.607 274.204 185.44 273.524 185.44C272.844 185.44 272.224 185.6 271.664 185.92C271.104 186.24 270.657 186.707 270.324 187.32C269.99 187.933 269.824 188.653 269.824 189.48C269.824 190.32 269.99 191.053 270.324 191.68C270.657 192.293 271.104 192.767 271.664 193.1C272.224 193.42 272.844 193.58 273.524 193.58C274.204 193.58 274.824 193.42 275.384 193.1C275.957 192.767 276.41 192.293 276.744 191.68C277.077 191.053 277.244 190.327 277.244 189.5ZM286.679 183.86C287.626 183.86 288.452 184.067 289.159 184.48C289.879 184.893 290.412 185.413 290.759 186.04V184.04H292.599V195.24C292.599 196.24 292.386 197.127 291.959 197.9C291.532 198.687 290.919 199.3 290.119 199.74C289.332 200.18 288.412 200.4 287.359 200.4C285.919 200.4 284.719 200.06 283.759 199.38C282.799 198.7 282.232 197.773 282.059 196.6H283.859C284.059 197.267 284.472 197.8 285.099 198.2C285.726 198.613 286.479 198.82 287.359 198.82C288.359 198.82 289.172 198.507 289.799 197.88C290.439 197.253 290.759 196.373 290.759 195.24V192.94C290.399 193.58 289.866 194.113 289.159 194.54C288.452 194.967 287.626 195.18 286.679 195.18C285.706 195.18 284.819 194.94 284.019 194.46C283.232 193.98 282.612 193.307 282.159 192.44C281.706 191.573 281.479 190.587 281.479 189.48C281.479 188.36 281.706 187.38 282.159 186.54C282.612 185.687 283.232 185.027 284.019 184.56C284.819 184.093 285.706 183.86 286.679 183.86ZM290.759 189.5C290.759 188.673 290.592 187.953 290.259 187.34C289.926 186.727 289.472 186.26 288.899 185.94C288.339 185.607 287.719 185.44 287.039 185.44C286.359 185.44 285.739 185.6 285.179 185.92C284.619 186.24 284.172 186.707 283.839 187.32C283.506 187.933 283.339 188.653 283.339 189.48C283.339 190.32 283.506 191.053 283.839 191.68C284.172 192.293 284.619 192.767 285.179 193.1C285.739 193.42 286.359 193.58 287.039 193.58C287.719 193.58 288.339 193.42 288.899 193.1C289.472 192.767 289.926 192.293 290.259 191.68C290.592 191.053 290.759 190.327 290.759 189.5ZM305.675 189.1C305.675 189.447 305.655 189.813 305.615 190.2H296.855C296.921 191.28 297.288 192.127 297.955 192.74C298.635 193.34 299.455 193.64 300.415 193.64C301.201 193.64 301.855 193.46 302.375 193.1C302.908 192.727 303.281 192.233 303.495 191.62H305.455C305.161 192.673 304.575 193.533 303.695 194.2C302.815 194.853 301.721 195.18 300.415 195.18C299.375 195.18 298.441 194.947 297.615 194.48C296.801 194.013 296.161 193.353 295.695 192.5C295.228 191.633 294.995 190.633 294.995 189.5C294.995 188.367 295.221 187.373 295.675 186.52C296.128 185.667 296.761 185.013 297.575 184.56C298.401 184.093 299.348 183.86 300.415 183.86C301.455 183.86 302.375 184.087 303.175 184.54C303.975 184.993 304.588 185.62 305.015 186.42C305.455 187.207 305.675 188.1 305.675 189.1ZM303.795 188.72C303.795 188.027 303.641 187.433 303.335 186.94C303.028 186.433 302.608 186.053 302.075 185.8C301.555 185.533 300.975 185.4 300.335 185.4C299.415 185.4 298.628 185.693 297.975 186.28C297.335 186.867 296.968 187.68 296.875 188.72H303.795Z" fill="black"/>
</g>
<defs>
<clipPath id="clip0_210_69">
<rect width="480" height="220" fill="white"/>
</clipPath>
<clipPath id="clip1_210_69">
<rect width="191" height="191" fill="white" transform="translate(144 -3)"/>
</clipPath>
</defs>
</svg>
