<svg width="48" height="48" viewBox="0 0 48 48" fill="none" xmlns="http://www.w3.org/2000/svg">
<g clip-path="url(#clip0_207_4)">
<path d="M4.53076 42.5C4.23076 42.5 3.96989 42.4313 3.74816 42.2938C3.52642 42.1563 3.35396 41.975 3.23076 41.75C3.09186 41.53 3.01547 41.2917 3.00161 41.035C2.98771 40.7783 3.06409 40.5167 3.23076 40.25L22.6308 6.75C22.7974 6.48333 22.9891 6.29167 23.2058 6.175C23.4224 6.05833 23.6641 6 23.9308 6C24.1974 6 24.4391 6.05833 24.6558 6.175C24.8724 6.29167 25.0641 6.48333 25.2308 6.75L44.6308 40.25C44.7974 40.5167 44.8738 40.7783 44.8599 41.035C44.846 41.2917 44.7697 41.53 44.6308 41.75C44.5076 41.975 44.3351 42.1563 44.1134 42.2938C43.8916 42.4313 43.6308 42.5 43.3308 42.5H4.53076ZM7.13075 39.5H40.7308L23.9308 10.5L7.13075 39.5ZM24.1395 36.65C24.567 36.65 24.9224 36.5054 25.2058 36.2163C25.4891 35.9271 25.6308 35.5687 25.6308 35.1413C25.6308 34.7138 25.4862 34.3583 25.197 34.075C24.9078 33.7917 24.5495 33.65 24.122 33.65C23.6945 33.65 23.3391 33.7946 23.0558 34.0837C22.7724 34.3729 22.6308 34.7313 22.6308 35.1587C22.6308 35.5862 22.7753 35.9417 23.0645 36.225C23.3537 36.5083 23.712 36.65 24.1395 36.65ZM24.1395 31.1C24.567 31.1 24.9224 30.9563 25.2058 30.6688C25.4891 30.3813 25.6308 30.025 25.6308 29.6V21.4C25.6308 20.975 25.4862 20.6188 25.197 20.3313C24.9078 20.0438 24.5495 19.9 24.122 19.9C23.6945 19.9 23.3391 20.0438 23.0558 20.3313C22.7724 20.6188 22.6308 20.975 22.6308 21.4V29.6C22.6308 30.025 22.7753 30.3813 23.0645 30.6688C23.3537 30.9563 23.712 31.1 24.1395 31.1Z" fill="black"/>
</g>
<defs>
<clipPath id="clip0_207_4">
<rect width="48" height="48" fill="white"/>
</clipPath>
</defs>
</svg>
