<svg width="48" height="48" viewBox="0 0 48 48" fill="none" xmlns="http://www.w3.org/2000/svg">
<path d="M15.7626 29.7626C15.0791 30.446 15.0791 31.554 15.7626 32.2374C16.446 32.9209 17.554 32.9209 18.2374 32.2374L15.7626 29.7626ZM44.75 5C44.75 4.0335 43.9665 3.25 43 3.25H27.25C26.2835 3.25 25.5 4.0335 25.5 5C25.5 5.9665 26.2835 6.75 27.25 6.75H41.25V20.75C41.25 21.7165 42.0335 22.5 43 22.5C43.9665 22.5 44.75 21.7165 44.75 20.75V5ZM18.2374 32.2374L44.2374 6.23744L41.7626 3.76256L15.7626 29.7626L18.2374 32.2374Z" fill="black"/>
<path d="M20 16H5V43H32V28" stroke="black" stroke-width="3" stroke-linecap="round" stroke-linejoin="round"/>
</svg>
