<svg width="48" height="48" viewBox="0 0 48 48" fill="none" xmlns="http://www.w3.org/2000/svg">
<path d="M15.6316 43C14.6211 43 13.7368 42.6069 12.9789 41.8207C12.2211 41.0345 11.8421 40.1173 11.8421 39.069V11.8793H10.8947C10.3474 11.8793 9.89473 11.6937 9.53684 11.3224C9.17895 10.9511 9 10.4816 9 9.91385C9 9.34597 9.17895 8.87645 9.53684 8.50516C9.89473 8.1339 10.3474 7.94827 10.8947 7.94827H19.7368V6.96552C19.7368 6.3977 19.9158 5.92816 20.2737 5.5569C20.6316 5.18563 21.0842 5 21.6316 5H26.3684C26.9158 5 27.3684 5.18563 27.7264 5.5569C28.0842 5.92816 28.2632 6.3977 28.2632 6.96552V7.94827H37.1053C37.6526 7.94827 38.1052 8.1339 38.4632 8.50516C38.8211 8.87645 39 9.34597 39 9.91385C39 10.4816 38.8211 10.9511 38.4632 11.3224C38.1052 11.6937 37.6526 11.8793 37.1053 11.8793H36.1579V39.069C36.1579 40.1173 35.7789 41.0345 35.0211 41.8207C34.2632 42.6069 33.3789 43 32.3684 43H15.6316ZM15.6316 11.8793V39.069H32.3684V11.8793H15.6316Z" fill="black"/>
</svg>
