<svg width="48" height="48" viewBox="0 0 48 48" fill="none" xmlns="http://www.w3.org/2000/svg">
<g clip-path="url(#clip0_207_4)">
<g clip-path="url(#clip1_207_4)">
<path d="M24.0002 42.0004C33.9414 42.0004 42.0004 33.9414 42.0004 24.0002C42.0004 14.059 33.9414 6 24.0002 6C14.059 6 6 14.059 6 24.0002C6 33.9414 14.059 42.0004 24.0002 42.0004Z" fill="#05AD00"/>
<path d="M34.9825 16.9347L34.9459 16.8981C34.4782 16.4305 33.8439 16.1678 33.1825 16.1678C32.5212 16.1678 31.8869 16.4305 31.4192 16.8981L20.9864 27.3335L16.5797 22.9268C16.112 22.4592 15.4777 22.1965 14.8164 22.1965C14.155 22.1965 13.5207 22.4592 13.053 22.9268L13.0164 22.9635C12.5488 23.4312 12.2861 24.0655 12.2861 24.7268C12.2861 25.3882 12.5488 26.0225 13.0164 26.4902L17.4241 30.8953L17.4164 30.903L18.9451 32.4251C19.4889 32.9666 20.2252 33.2702 20.9926 33.2694C21.7599 33.2685 22.4956 32.9633 23.0382 32.4208L24.5559 30.903L24.5482 30.8953L34.9825 20.4614C35.4501 19.9937 35.7128 19.3594 35.7128 18.6981C35.7128 18.0367 35.4501 17.4024 34.9825 16.9347Z" fill="white"/>
</g>
</g>
<defs>
<clipPath id="clip0_207_4">
<rect width="48" height="48" fill="white"/>
</clipPath>
<clipPath id="clip1_207_4">
<rect width="36" height="36" fill="white" transform="translate(6 6)"/>
</clipPath>
</defs>
</svg>
