<svg width="48" height="48" viewBox="0 0 48 48" fill="none" xmlns="http://www.w3.org/2000/svg">
<path d="M23.9891 35.2548C23.4547 35.2548 23.0104 35.0717 22.6562 34.7054C22.3021 34.3392 22.125 33.8854 22.125 33.3439V11.6242L15.9375 17.9299C15.5625 18.3121 15.125 18.4926 14.625 18.4713C14.125 18.4501 13.6875 18.2484 13.3125 17.8662C12.9375 17.4841 12.75 17.0276 12.75 16.4968C12.75 15.966 12.9375 15.5096 13.3125 15.1274L22.6875 5.57325C22.8958 5.36093 23.1069 5.21231 23.3208 5.12739C23.5347 5.04246 23.7639 5 24.0083 5C24.2528 5 24.4792 5.04246 24.6875 5.12739C24.8958 5.21231 25.1042 5.36093 25.3125 5.57325L34.75 15.1911C35.125 15.5732 35.3125 16.0191 35.3125 16.5287C35.3125 17.0382 35.125 17.4841 34.75 17.8662C34.375 18.2484 33.9271 18.4395 33.4062 18.4395C32.8854 18.4395 32.4375 18.2484 32.0625 17.8662L25.875 11.6242V33.3439C25.875 33.8854 25.6943 34.3392 25.3328 34.7054C24.9713 35.0717 24.5234 35.2548 23.9891 35.2548ZM7.75 45C6.75 45 5.875 44.6178 5.125 43.8535C4.375 43.0892 4 42.1975 4 41.1783V33.9809C4 33.4395 4.18073 32.9857 4.54219 32.6194C4.90369 32.2532 5.3516 32.0701 5.88594 32.0701C6.42031 32.0701 6.86458 32.2532 7.21875 32.6194C7.57292 32.9857 7.75 33.4395 7.75 33.9809V41.1783H40.25V33.9809C40.25 33.4395 40.4307 32.9857 40.7922 32.6194C41.1537 32.2532 41.6016 32.0701 42.1359 32.0701C42.6703 32.0701 43.1146 32.2532 43.4688 32.6194C43.8229 32.9857 44 33.4395 44 33.9809V41.1783C44 42.1975 43.625 43.0892 42.875 43.8535C42.125 44.6178 41.25 45 40.25 45H7.75Z" fill="black"/>
</svg>
