<svg width="48" height="48" viewBox="0 0 48 48" fill="none" xmlns="http://www.w3.org/2000/svg">
<path d="M24.5 23.7729C21.5438 23.7729 19.125 22.8035 17.2438 20.8647C15.3625 18.9259 14.4219 16.4332 14.4219 13.3865C14.4219 10.3398 15.3625 7.84702 17.2438 5.90821C19.125 3.9694 21.5438 3 24.5 3C27.4563 3 29.875 3.9694 31.7563 5.90821C33.6375 7.84702 34.5781 10.3398 34.5781 13.3865C34.5781 16.4332 33.6375 18.9259 31.7563 20.8647C29.875 22.8035 27.4563 23.7729 24.5 23.7729ZM41.9688 46H7.03125C5.92266 46 4.97363 45.5932 4.18418 44.7796C3.39473 43.966 3 42.9879 3 41.8454V39.4911C3 37.737 3.42552 36.2367 4.27656 34.9903C5.1276 33.744 6.225 32.7976 7.56875 32.1514C10.5698 30.7665 13.4477 29.7279 16.2023 29.0354C18.957 28.343 21.7229 27.9968 24.5 27.9968C27.2771 27.9968 30.0318 28.3545 32.7641 29.07C35.4964 29.7856 38.3613 30.8171 41.3588 32.1648C42.7608 32.8169 43.8848 33.7624 44.7309 35.0014C45.577 36.2404 46 37.737 46 39.4911V41.8454C46 42.9879 45.6053 43.966 44.8158 44.7796C44.0264 45.5932 43.0773 46 41.9688 46ZM7.03125 41.8454H41.9688V39.4911C41.9688 38.7525 41.756 38.0486 41.3305 37.3792C40.9049 36.7099 40.3786 36.2136 39.7516 35.8905C36.8849 34.4595 34.2646 33.4785 31.8906 32.9477C29.5167 32.4168 27.0531 32.1514 24.5 32.1514C21.9469 32.1514 19.4609 32.4168 17.0422 32.9477C14.6234 33.4785 12.0031 34.4595 9.18125 35.8905C8.55417 36.2136 8.03906 36.7099 7.63594 37.3792C7.23281 38.0486 7.03125 38.7525 7.03125 39.4911V41.8454ZM24.5 19.6184C26.2469 19.6184 27.6914 19.0298 28.8336 17.8527C29.9758 16.6755 30.5469 15.1868 30.5469 13.3865C30.5469 11.5862 29.9758 10.0974 28.8336 8.92029C27.6914 7.74316 26.2469 7.15459 24.5 7.15459C22.7531 7.15459 21.3086 7.74316 20.1664 8.92029C19.0242 10.0974 18.4531 11.5862 18.4531 13.3865C18.4531 15.1868 19.0242 16.6755 20.1664 17.8527C21.3086 19.0298 22.7531 19.6184 24.5 19.6184Z" fill="black"/>
</svg>
